<?xml version="1.0" encoding="UTF-8"?>
<svg version="1.1" xmlns="http://www.w3.org/2000/svg" width="1920" height="1117">
<path d="M0 0 C633.6 0 1267.2 0 1920 0 C1920 368.61 1920 737.22 1920 1117 C1286.4 1117 652.8 1117 0 1117 C0 748.39 0 379.78 0 0 Z " fill="#000000" transform="translate(0,0)"/>
<path d="M0 0 C0.66 0 1.32 0 2 0 C2.57364989 4.46523891 3.14318699 8.93097773 3.70898438 13.3972168 C3.90187545 14.91526309 4.09587291 16.43316924 4.29101562 17.95092773 C4.57195119 20.13749512 4.84885234 22.32454216 5.125 24.51171875 C5.21249512 25.18587326 5.29999023 25.86002777 5.39013672 26.55461121 C5.82851739 30.0595893 6.09506906 33.46759025 6 37 C6.55236328 37.0501123 7.10472656 37.10022461 7.67382812 37.15185547 C19.48009766 38.23026576 31.24726238 39.43740122 43 41 C40.53084719 43.46915281 39.35930931 43.42585033 35.94140625 43.8515625 C34.40129883 44.04492188 34.40129883 44.04492188 32.83007812 44.2421875 C31.75177734 44.36851562 30.67347656 44.49484375 29.5625 44.625 C28.51900391 44.7590625 27.47550781 44.893125 26.40039062 45.03125 C19.56729105 45.86258924 12.88063383 46.16930104 6 46 C5.95101562 46.969375 5.90203125 47.93875 5.8515625 48.9375 C5.32030015 58.69407791 4.32576089 68.32065834 3 78 C3.99 78 4.98 78 6 78 C6 78.66 6 79.32 6 80 C5.01 80.33 4.02 80.66 3 81 C2.505 82.485 2.505 82.485 2 84 C1.34 84 0.68 84 0 84 C-0.04898438 83.14019531 -0.09796875 82.28039062 -0.1484375 81.39453125 C-0.53483468 75.28545862 -1.04755107 69.28930602 -2.0625 63.25 C-2.97047659 57.76851171 -3.17965713 52.54118942 -3 47 C-4.30324219 47.01675781 -5.60648438 47.03351563 -6.94921875 47.05078125 C-11.61564373 47.04804434 -16.17859164 46.71456518 -20.8125 46.1875 C-21.5864209 46.10129395 -22.3603418 46.01508789 -23.15771484 45.92626953 C-29.58836552 45.15661895 -35.78278757 43.82859189 -42 42 C-42 41.67 -42 41.34 -42 41 C-37.08903703 40.42743501 -32.17774064 39.85785309 -27.26611328 39.29101562 C-25.59577115 39.09782255 -23.92552254 38.90381903 -22.25537109 38.70898438 C-19.85278143 38.42884899 -17.44986894 38.15164335 -15.046875 37.875 C-14.30193787 37.78750488 -13.55700073 37.70000977 -12.78948975 37.60986328 C-9.49076708 37.23270379 -6.32655124 37 -3 37 C-3.05220703 35.88431641 -3.05220703 35.88431641 -3.10546875 34.74609375 C-3.39659228 23.00411141 -1.69022005 11.59478967 0 0 Z " fill="#E4E87B" transform="translate(219,333)"/>
<path d="M0 0 C2.79535651 2.79535651 2.66493518 5.7355849 3.0625 9.5 C3.14483887 10.21671875 3.22717773 10.9334375 3.31201172 11.671875 C3.55138991 13.78029913 3.77820945 15.88966036 4 18 C4.11472656 19.0828125 4.22945312 20.165625 4.34765625 21.28125 C4.57603562 23.52001115 4.79529042 25.75896883 5 28 C5.82177734 28.07347656 5.82177734 28.07347656 6.66015625 28.1484375 C12.11591011 28.66296388 17.5610737 29.26883855 23 29.9375 C24.27875 30.09089844 25.5575 30.24429688 26.875 30.40234375 C30 31 30 31 32 33 C27.35970475 34.72831028 22.8340446 35.56722368 17.9375 36.125 C17.24333984 36.21136719 16.54917969 36.29773438 15.83398438 36.38671875 C12.20408252 36.82106598 8.65566521 37.09976474 5 37 C4.96261719 37.680625 4.92523437 38.36125 4.88671875 39.0625 C4.28940318 47.86997666 2.74263153 56.36356199 1 65 C0.34 64.67 -0.32 64.34 -1 64 C-1.43267864 61.50308369 -1.75313887 59.0791121 -2 56.5625 C-2.6476061 50.28431861 -3.68318881 44.17415051 -5 38 C-5.62567871 37.88930176 -6.25135742 37.77860352 -6.89599609 37.66455078 C-9.72385769 37.15951919 -12.54937986 36.64241875 -15.375 36.125 C-16.35984375 35.95097656 -17.3446875 35.77695312 -18.359375 35.59765625 C-19.30039063 35.42363281 -20.24140625 35.24960937 -21.2109375 35.0703125 C-22.08024902 34.91320801 -22.94956055 34.75610352 -23.84521484 34.59423828 C-26 34 -26 34 -28 32 C-19.9901375 29.74190046 -12.3124321 28.42741229 -4 28 C-3.95101563 27.29617188 -3.90203125 26.59234375 -3.8515625 25.8671875 C-2.23076923 4.46153846 -2.23076923 4.46153846 0 0 Z " fill="#A6EFED" transform="translate(1567,492)"/>
<path d="M0 0 C2.11727704 3.17591555 2.40833284 4.69254248 2.8515625 8.40234375 C2.98046875 9.45744141 3.109375 10.51253906 3.2421875 11.59960938 C3.36851562 12.70111328 3.49484375 13.80261719 3.625 14.9375 C3.82609375 16.58395508 3.82609375 16.58395508 4.03125 18.26367188 C4.54389691 22.55055084 5 26.67728285 5 31 C5.87785156 31.07347656 5.87785156 31.07347656 6.7734375 31.1484375 C15.86660298 31.94033479 24.93112597 32.97239381 34 34 C34 34.66 34 35.32 34 36 C30.48026001 36.50790159 26.95905958 37.00488523 23.4375 37.5 C22.44685547 37.64308594 21.45621094 37.78617188 20.43554688 37.93359375 C15.23532412 38.65920623 10.25047582 39.17673411 5 39 C3.37010609 54.98806342 3.37010609 54.98806342 2 71 C1.34 71 0.68 71 0 71 C-0.50693672 66.98000981 -1.0043039 62.95889046 -1.5 58.9375 C-1.64308594 57.80376953 -1.78617187 56.67003906 -1.93359375 55.50195312 C-2.61191318 49.96234446 -3.19443782 44.58198572 -3 39 C-3.95777344 38.95101562 -4.91554688 38.90203125 -5.90234375 38.8515625 C-15.99372112 38.29761138 -25.97590297 37.27782425 -36 36 C-36 35.34 -36 34.68 -36 34 C-31.62561293 33.49453917 -27.25040173 32.99659468 -22.875 32.5 C-21.6375 32.35691406 -20.4 32.21382812 -19.125 32.06640625 C-17.92617188 31.93105469 -16.72734375 31.79570313 -15.4921875 31.65625 C-14.39245605 31.53056641 -13.29272461 31.40488281 -12.15966797 31.27539062 C-9.08768155 31.00764216 -6.08177181 30.95127634 -3 31 C-2.94465088 30.23856689 -2.88930176 29.47713379 -2.83227539 28.69262695 C-2.57891641 25.23233914 -2.32075807 21.77242548 -2.0625 18.3125 C-1.97548828 17.11431641 -1.88847656 15.91613281 -1.79882812 14.68164062 C-1.71181641 13.52470703 -1.62480469 12.36777344 -1.53515625 11.17578125 C-1.456604 10.11270752 -1.37805176 9.04963379 -1.29711914 7.9543457 C-1.02469562 5.245556 -0.58626953 2.65646669 0 0 Z " fill="#A3EBE8" transform="translate(503,573)"/>
<path d="M0 0 C0.66 0.33 1.32 0.66 2 1 C2.33 13.87 2.66 26.74 3 40 C6.3 40.144375 9.6 40.28875 13 40.4375 C22.34131276 40.8543113 31.67053407 41.37179814 41 42 C41 42.66 41 43.32 41 44 C32.39421862 44.87019244 23.8960185 45.12607367 15.25 45.0625 C14.0640625 45.05798828 12.878125 45.05347656 11.65625 45.04882812 C8.77077772 45.03719316 5.88541787 45.0208484 3 45 C2.96241577 45.9132605 2.96241577 45.9132605 2.92407227 46.8449707 C1.99264318 69.17181175 1.99264318 69.17181175 1 78 C0.67 78 0.34 78 0 78 C-1.99713752 67.17517899 -2.16647733 55.98360188 -2 45 C-3.93939453 45.01740234 -3.93939453 45.01740234 -5.91796875 45.03515625 C-15.67242601 45.09525302 -25.28664073 44.99260606 -35 44 C-34.67 43.34 -34.34 42.68 -34 42 C-31.29191567 41.82805814 -28.58365937 41.66243176 -25.875 41.5 C-25.13378906 41.45230469 -24.39257812 41.40460937 -23.62890625 41.35546875 C-16.41904808 40.93135945 -9.22036765 40.95325782 -2 41 C-1.96241577 39.72322388 -1.96241577 39.72322388 -1.92407227 38.4206543 C-1.82793449 35.20930374 -1.72877534 31.99806344 -1.62768555 28.78686523 C-1.58484114 27.40701849 -1.54314027 26.02713567 -1.50268555 24.6472168 C-1.25996353 16.39766479 -0.88053927 8.20792248 0 0 Z " fill="#E3E779" transform="translate(1015,777)"/>
<path d="M0 0 C2.00280343 3.00420515 2.26734267 3.74725875 2.4140625 7.140625 C2.45281494 7.95756836 2.49156738 8.77451172 2.53149414 9.61621094 C2.56235107 10.48536133 2.59320801 11.35451172 2.625 12.25 C2.68192017 13.5807959 2.68192017 13.5807959 2.73999023 14.93847656 C3.04460698 22.62780445 3.10492114 30.30578288 3 38 C3.65742187 37.98839844 4.31484375 37.97679687 4.9921875 37.96484375 C11.52597422 37.90287016 18.03712521 38.06586185 24.5625 38.375 C25.34802246 38.40585693 26.13354492 38.43671387 26.94287109 38.46850586 C30.74647268 38.66715215 32.76831172 38.84554114 36 41 C24.97636372 41.91050683 14.05694276 42.1139891 3 42 C3.02320313 42.63421875 3.04640625 43.2684375 3.0703125 43.921875 C3.26580219 54.03148453 2.11066248 63.96437113 1 74 C0.67 74 0.34 74 0 74 C-1.36326269 63.2643063 -2.31366039 52.83870913 -2 42 C-2.92111572 42.00785522 -2.92111572 42.00785522 -3.86083984 42.01586914 C-6.69888241 42.03692129 -9.53690846 42.04974863 -12.375 42.0625 C-13.34050781 42.07087891 -14.30601563 42.07925781 -15.30078125 42.08789062 C-21.59824289 42.10902305 -27.74839863 41.76107198 -34 41 C-34 40.67 -34 40.34 -34 40 C-29.81125824 39.22461368 -25.76379599 38.82545987 -21.5078125 38.68359375 C-20.30898437 38.64169922 -19.11015625 38.59980469 -17.875 38.55664062 C-16.6375 38.51732422 -15.4 38.47800781 -14.125 38.4375 C-12.23394531 38.37272461 -12.23394531 38.37272461 -10.3046875 38.30664062 C-7.20322577 38.20090898 -4.10168855 38.09881429 -1 38 C-1.00523682 36.88439697 -1.01047363 35.76879395 -1.01586914 34.61938477 C-1.03391775 30.49520667 -1.04543149 26.37103209 -1.05493164 22.24682617 C-1.05997218 20.45905979 -1.06680454 18.67129755 -1.07543945 16.88354492 C-1.0875173 14.31948832 -1.09323094 11.75548603 -1.09765625 9.19140625 C-1.10281754 8.3872377 -1.10797882 7.58306915 -1.11329651 6.75453186 C-1.11349215 4.83598285 -1.06201983 2.91754632 -1 1 C-0.67 0.67 -0.34 0.34 0 0 Z " fill="#DADE75" transform="translate(1708,105)"/>
<path d="M0 0 C1.78580787 3.57161573 2.30896524 5.19073564 2.6328125 8.984375 C2.70902832 9.82709961 2.78524414 10.66982422 2.86376953 11.53808594 C2.94997559 12.59801758 3.03618164 13.65794922 3.125 14.75 C3.41375 18.1325 3.7025 21.515 4 25 C11.59 25.99 19.18 26.98 27 28 C27 28.33 27 28.66 27 29 C15.615 30.485 15.615 30.485 4 32 C4 34.97 4 37.94 4 41 C3.57404882 43.70022626 3.0777027 46.39062503 2.5 49.0625 C2.35691406 49.73732422 2.21382812 50.41214844 2.06640625 51.10742188 C1.71904346 52.74002698 1.36072517 54.37029522 1 56 C0.67 56 0.34 56 0 56 C-0.5021696 52.37529707 -1.00136777 48.7501911 -1.5 45.125 C-1.64308594 44.09246094 -1.78617188 43.05992187 -1.93359375 41.99609375 C-2.06894531 41.00996094 -2.20429688 40.02382813 -2.34375 39.0078125 C-2.46943359 38.09660645 -2.59511719 37.18540039 -2.72460938 36.24658203 C-3 34 -3 34 -3 32 C-4.26457031 31.87882813 -5.52914062 31.75765625 -6.83203125 31.6328125 C-8.49223198 31.46397853 -10.15238589 31.29468367 -11.8125 31.125 C-12.64587891 31.04636719 -13.47925781 30.96773437 -14.33789062 30.88671875 C-15.14033203 30.80292969 -15.94277344 30.71914063 -16.76953125 30.6328125 C-17.87711792 30.52283936 -17.87711792 30.52283936 -19.00708008 30.41064453 C-21 30 -21 30 -24 28 C-21.43850372 27.49432271 -18.87600535 26.99529868 -16.3125 26.5 C-15.59126953 26.35691406 -14.87003906 26.21382812 -14.12695312 26.06640625 C-13.42119141 25.93105469 -12.71542969 25.79570313 -11.98828125 25.65625 C-11.34415283 25.53056641 -10.70002441 25.40488281 -10.03637695 25.27539062 C-8 25 -8 25 -3 25 C-2.01 16.75 -1.02 8.5 0 0 Z " fill="#E5E97A" transform="translate(214,881)"/>
<path d="M0 0 C0.33 0 0.66 0 1 0 C2.20731692 8.68836995 3.38064163 17.20294908 3 26 C4.55460937 26.07347656 4.55460937 26.07347656 6.140625 26.1484375 C7.51044208 26.22349597 8.88023248 26.29904247 10.25 26.375 C10.93191406 26.4059375 11.61382813 26.436875 12.31640625 26.46875 C15.98739038 26.68259374 18.86251616 27.01077055 22 29 C18.28570102 30.1161656 14.60838492 30.3124195 10.75 30.5625 C7.40875 30.7790625 7.40875 30.7790625 4 31 C3.01 38.92 2.02 46.84 1 55 C0.67 55 0.34 55 0 55 C-0.33660492 51.75033015 -0.66871079 48.50021572 -1 45.25 C-1.14308594 43.86941406 -1.14308594 43.86941406 -1.2890625 42.4609375 C-1.37929687 41.57148438 -1.46953125 40.68203125 -1.5625 39.765625 C-1.64628906 38.94868164 -1.73007813 38.13173828 -1.81640625 37.29003906 C-1.98403202 35.19917501 -2 33.09757262 -2 31 C-2.63164063 31.02320313 -3.26328125 31.04640625 -3.9140625 31.0703125 C-11.76537441 31.22869631 -19.26059787 30.26542049 -27 29 C-19.95716817 24.30477878 -10.22244789 24.7369803 -2 25 C-1.90912109 23.17275391 -1.90912109 23.17275391 -1.81640625 21.30859375 C-1.73193597 19.68488723 -1.64729128 18.06118978 -1.5625 16.4375 C-1.52318359 15.63763672 -1.48386719 14.83777344 -1.44335938 14.01367188 C-1.19251844 9.28628494 -0.74678186 4.67523099 0 0 Z " fill="#E9ED7D" transform="translate(1258,245)"/>
<path d="M0 0 C4.11810159 6.17715238 3.11637422 14.78479859 3 22 C3.53625 21.97679687 4.0725 21.95359375 4.625 21.9296875 C12.86197799 21.74002024 20.86219924 22.86918898 29 24 C29 24.66 29 25.32 29 26 C20.42 26.33 11.84 26.66 3 27 C3 30.63 3 34.26 3 38 C2 42.6875 2 42.6875 1 46 C0.67 46 0.34 46 0 46 C-0.84023188 41.64667264 -1.10770995 37.55557481 -1.0625 33.125 C-1.05347656 31.97257813 -1.04445313 30.82015625 -1.03515625 29.6328125 C-1.02355469 28.76398437 -1.01195312 27.89515625 -1 27 C-2.07314453 27.03480469 -2.07314453 27.03480469 -3.16796875 27.0703125 C-10.97243499 27.21166118 -18.32563267 26.38633732 -26 25 C-26 24.67 -26 24.34 -26 24 C-20.68716089 23.16038798 -15.43150332 22.71842096 -10.0625 22.4375 C-7.401875 22.293125 -4.74125 22.14875 -2 22 C-1.34 14.74 -0.68 7.48 0 0 Z " fill="#D4D871" transform="translate(1600,842)"/>
<path d="M0 0 C0.33 0 0.66 0 1 0 C1.88610155 9.38318247 2.08798485 18.58562131 2 28 C10.58 28 19.16 28 28 28 C28 28.66 28 29.32 28 30 C19.42 30 10.84 30 2 30 C2.020625 32.000625 2.04125 34.00125 2.0625 36.0625 C2.07034779 43.74548964 1.60066628 51.34150497 1 59 C0.67 59 0.34 59 0 59 C-1.12998844 49.65741704 -1.09908936 40.39146903 -1 31 C-1.87140625 31.01160156 -2.7428125 31.02320313 -3.640625 31.03515625 C-11.48903438 31.0946139 -19.1924235 30.80077708 -27 30 C-27 29.34 -27 28.68 -27 28 C-14.625 27.505 -14.625 27.505 -2 27 C-1.34 18.09 -0.68 9.18 0 0 Z " fill="#9BDFDD" transform="translate(556,131)"/>
<path d="M0 0 C0.33 0 0.66 0 1 0 C2.05619003 4.28297531 2.11702092 8.42985646 2.0625 12.8125 C2.05798828 13.50537109 2.05347656 14.19824219 2.04882812 14.91210938 C2.03713156 16.60811068 2.01919924 18.30406703 2 20 C2.68964844 19.98839844 3.37929688 19.97679687 4.08984375 19.96484375 C10.15772652 19.90657876 15.98357396 20.21096052 22 21 C22 21.33 22 21.66 22 22 C15.30324864 23.03026944 8.7685324 23.10152799 2 23 C2.01160156 23.88042969 2.02320313 24.76085937 2.03515625 25.66796875 C2.04417969 26.82941406 2.05320312 27.99085938 2.0625 29.1875 C2.07410156 30.33605469 2.08570313 31.48460937 2.09765625 32.66796875 C2.01192832 35.59300586 1.67849023 38.16316291 1 41 C0.67 41 0.34 41 0 41 C-0.77040851 34.93303301 -1.09706112 29.11485027 -1 23 C-2.299375 23.020625 -3.59875 23.04125 -4.9375 23.0625 C-9.69382325 23.07004972 -14.28388953 22.59887117 -19 22 C-19 21.67 -19 21.34 -19 21 C-13.06 20.67 -7.12 20.34 -1 20 C-1 17.03 -1 14.06 -1 11 C-0.86527944 8.97678585 -0.70429135 6.95487706 -0.5 4.9375 C-0.36078125 3.52791016 -0.36078125 3.52791016 -0.21875 2.08984375 C-0.1465625 1.40019531 -0.074375 0.71054687 0 0 Z " fill="#AAAD5B" transform="translate(975,466)"/>
<path d="M0 0 C2.00280343 3.00420515 2.26734267 3.74725875 2.4140625 7.140625 C2.45281494 7.95756836 2.49156738 8.77451172 2.53149414 9.61621094 C2.57777954 10.91993652 2.57777954 10.91993652 2.625 12.25 C2.66294678 13.13719727 2.70089355 14.02439453 2.73999023 14.93847656 C3.04460698 22.62780445 3.10492114 30.30578288 3 38 C-1.10931002 33.17602736 -1.12671175 28.59060212 -1.1328125 22.421875 C-1.13410156 21.17921875 -1.13539062 19.9365625 -1.13671875 18.65625 C-1.13285156 17.3671875 -1.12898438 16.078125 -1.125 14.75 C-1.12886719 13.44546875 -1.13273437 12.1409375 -1.13671875 10.796875 C-1.13542969 9.559375 -1.13414063 8.321875 -1.1328125 7.046875 C-1.13168457 5.91088867 -1.13055664 4.77490234 -1.12939453 3.60449219 C-1 1 -1 1 0 0 Z " fill="#ACAF5C" transform="translate(1708,105)"/>
<path d="M0 0 C0.66 0.33 1.32 0.66 2 1 C2.33 13.87 2.66 26.74 3 40 C2.67 40 2.34 40 2 40 C1.67 37.36 1.34 34.72 1 32 C0.67 32 0.34 32 0 32 C-2.02644206 21.49788361 -1.23054533 10.56950544 0 0 Z " fill="#B2B560" transform="translate(1015,777)"/>
<path d="M0 0 C1.98 0 3.96 0 6 0 C6 0.33 6 0.66 6 1 C16.56 1.66 27.12 2.32 38 3 C39.125 15.375 39.125 15.375 39.0625 19.6875 C39.05347656 20.51636719 39.04445313 21.34523438 39.03515625 22.19921875 C39.02355469 22.79347656 39.01195312 23.38773438 39 24 C38.67 24 38.34 24 38 24 C36.96973056 17.30324864 36.89847201 10.7685324 37 4 C36.37657715 4.00523682 35.7531543 4.01047363 35.11083984 4.01586914 C23.35961973 4.10139949 11.70799893 4.13630492 0 3 C0 2.01 0 1.02 0 0 Z " fill="#31311B" transform="translate(975,819)"/>
<path d="M0 0 C4.29 0 8.58 0 13 0 C13 0.99 13 1.98 13 3 C-1.32505834 4.22848892 -15.63289536 4.10248703 -30 4 C-30 3.67 -30 3.34 -30 3 C-20.1 2.34 -10.2 1.68 0 1 C0 0.67 0 0.34 0 0 Z " fill="#3E3E22" transform="translate(1741,144)"/>
<path d="M0 0 C18.34042553 0.80851064 18.34042553 0.80851064 27 3 C23.78876631 5.14082246 22.21724314 5.41386588 18.45703125 5.8515625 C16.84731445 6.04492188 16.84731445 6.04492188 15.20507812 6.2421875 C14.08552734 6.36851562 12.96597656 6.49484375 11.8125 6.625 C10.68134766 6.7590625 9.55019531 6.893125 8.38476562 7.03125 C5.59060489 7.36136182 2.79578311 7.68397423 0 8 C0.33 7.01 0.66 6.02 1 5 C5.62 4.67 10.24 4.34 15 4 C15 3.67 15 3.34 15 3 C7.575 2.01 7.575 2.01 0 1 C0 0.67 0 0.34 0 0 Z " fill="#626435" transform="translate(1261,270)"/>
<path d="M0 0 C12.67577717 0.54510048 25.34079814 1.14758956 38 2 C38 2.66 38 3.32 38 4 C30.64424835 4.70776992 23.3905476 5.14715692 16 5 C16 4.67 16 4.34 16 4 C17.65 3.67 19.3 3.34 21 3 C14.07 2.34 7.14 1.68 0 1 C0 0.67 0 0.34 0 0 Z " fill="#91944E" transform="translate(1018,817)"/>
<path d="M0 0 C0.33 0 0.66 0 1 0 C1.09936683 7.78373524 1.07403435 15.53972499 0.625 23.3125 C0.55539062 24.54613281 0.48578125 25.77976563 0.4140625 27.05078125 C0 30 0 30 -2 32 C-3.22621401 28.17421227 -3.18369231 24.35022923 -3.1875 20.375 C-3.19974609 19.694375 -3.21199219 19.01375 -3.22460938 18.3125 C-3.22986355 16.54009244 -3.12215906 14.7682006 -3 13 C-2.34 12.34 -1.68 11.68 -1 11 C-0.53709779 8.33757179 -0.53709779 8.33757179 -0.375 5.375 C-0.30023437 4.37210938 -0.22546875 3.36921875 -0.1484375 2.3359375 C-0.09945313 1.56507813 -0.05046875 0.79421875 0 0 Z " fill="#4D4E2A" transform="translate(1710,159)"/>
<path d="M0 0 C0 0.33 0 0.66 0 1 C-3.63 1.66 -7.26 2.32 -11 3 C-7.7 3.66 -4.4 4.32 -1 5 C-1 5.33 -1 5.66 -1 6 C-9.16240568 6.33853295 -16.95072024 5.29901921 -25 4 C-17.99568789 -0.66954141 -8.1889313 -0.32610788 0 0 Z " fill="#999B52" transform="translate(1256,270)"/>
<path d="M0 0 C6.6 0 13.2 0 20 0 C20 0.33 20 0.66 20 1 C22.97 1.495 22.97 1.495 26 2 C26 2.33 26 2.66 26 3 C17.26860536 3.11624638 8.68873018 2.89115181 0 2 C0 1.34 0 0.68 0 0 Z " fill="#83BCBA" transform="translate(529,159)"/>
<path d="M0 0 C3.29164829 -0.02895225 6.58326399 -0.0467823 9.875 -0.0625 C10.81214844 -0.07087891 11.74929688 -0.07925781 12.71484375 -0.08789062 C14.05869141 -0.09272461 14.05869141 -0.09272461 15.4296875 -0.09765625 C16.67081299 -0.10551147 16.67081299 -0.10551147 17.93701172 -0.11352539 C20 0 20 0 22 1 C21.67 1.99 21.34 2.98 21 4 C15.39 4 9.78 4 4 4 C4 3.67 4 3.34 4 3 C7.96 3 11.92 3 16 3 C16 2.34 16 1.68 16 1 C10.72 1 5.44 1 0 1 C0 0.67 0 0.34 0 0 Z " fill="#212012" transform="translate(1040,818)"/>
<path d="M0 0 C0.99 0 1.98 0 3 0 C3.14256667 9.39355936 2.72492332 18.64072209 2 28 C1.67 28 1.34 28 1 28 C-0.12998844 18.65741704 -0.09908936 9.39146903 0 0 Z " fill="#8DCBC9" transform="translate(555,162)"/>
<path d="M0 0 C2.95970455 0.28102245 5.917288 0.5742918 8.875 0.875 C10.13763672 0.99294922 10.13763672 0.99294922 11.42578125 1.11328125 C12.23144531 1.19707031 13.03710938 1.28085937 13.8671875 1.3671875 C14.61081543 1.44050293 15.35444336 1.51381836 16.12060547 1.58935547 C18 2 18 2 20 4 C15.49646738 5.75747614 11.82360189 6.19294408 7 6 C8.32 5.67 9.64 5.34 11 5 C11 4.34 11 3.68 11 3 C10.37351562 2.95101562 9.74703125 2.90203125 9.1015625 2.8515625 C8.28429688 2.77679687 7.46703125 2.70203125 6.625 2.625 C5.40683594 2.52058594 5.40683594 2.52058594 4.1640625 2.4140625 C2 2 2 2 0 0 Z " fill="#80B8B6" transform="translate(1579,521)"/>
<path d="M0 0 C2.58396679 -0.08112454 5.16537568 -0.14054748 7.75 -0.1875 C8.47960938 -0.21263672 9.20921875 -0.23777344 9.9609375 -0.26367188 C14.78731876 -0.32948616 15.94866839 -0.03849871 20 3 C13.4 3 6.8 3 0 3 C0 2.01 0 1.02 0 0 Z " fill="#4A4A28" transform="translate(1664,144)"/>
<path d="M0 0 C1.98 0 3.96 0 6 0 C5.67 0.99 5.34 1.98 5 3 C-5.23 3 -15.46 3 -26 3 C-26 2.67 -26 2.34 -26 2 C-17.42 2 -8.84 2 0 2 C0 1.34 0 0.68 0 0 Z " fill="#39504F" transform="translate(584,159)"/>
<path d="M0 0 C0.33 0 0.66 0 1 0 C1 6.27 1 12.54 1 19 C0.01 18.67 -0.98 18.34 -2 18 C-2 13.71 -2 9.42 -2 5 C-1.67 5 -1.34 5 -1 5 C-0.67 3.35 -0.34 1.7 0 0 Z " fill="#636536" transform="translate(1016,844)"/>
<path d="M0 0 C2.01822917 0.06510417 4.03645833 0.13020833 6.0546875 0.1953125 C4.0746875 1.1853125 4.0746875 1.1853125 2.0546875 2.1953125 C7.3346875 3.1853125 12.6146875 4.1753125 18.0546875 5.1953125 C18.0546875 5.5253125 18.0546875 5.8553125 18.0546875 6.1953125 C2.12530253 5.60077947 2.12530253 5.60077947 -3.9453125 2.1953125 C-1.9453125 0.1953125 -1.9453125 0.1953125 0 0 Z " fill="#446160" transform="translate(1538.9453125,522.8046875)"/>
<path d="M0 0 C8.79705092 -0.38064163 17.31163005 0.79268308 26 2 C26 2.66 26 3.32 26 4 C23.03 4 20.06 4 17 4 C17 3.34 17 2.68 17 2 C16.1646875 2.01740234 16.1646875 2.01740234 15.3125 2.03515625 C10.10221657 2.09676433 5.1562049 1.74999344 0 1 C0 0.67 0 0.34 0 0 Z " fill="#797A41" transform="translate(1603,864)"/>
<path d="M0 0 C1.2065625 0.0309375 1.2065625 0.0309375 2.4375 0.0625 C2.1075 1.7125 1.7775 3.3625 1.4375 5.0625 C0.7775 5.0625 0.1175 5.0625 -0.5625 5.0625 C-0.5625 5.7225 -0.5625 6.3825 -0.5625 7.0625 C-1.2225 7.0625 -1.8825 7.0625 -2.5625 7.0625 C-2.5625 6.4025 -2.5625 5.7425 -2.5625 5.0625 C-3.5525 5.0625 -4.5425 5.0625 -5.5625 5.0625 C-3.15007962 0.07683121 -3.15007962 0.07683121 0 0 Z " fill="#B1B281" transform="translate(1481.5625,1073.9375)"/>
<path d="M0 0 C0.33 0 0.66 0 1 0 C2.00926479 4.15626368 2.10239579 8.04365094 2.0625 12.3125 C2.05347656 13.56675781 2.04445312 14.82101562 2.03515625 16.11328125 C2.01775391 17.54220703 2.01775391 17.54220703 2 19 C2.66 19 3.32 19 4 19 C4 20.32 4 21.64 4 23 C3.01 22.67 2.02 22.34 1 22 C0.67 14.74 0.34 7.48 0 0 Z " fill="#50512C" transform="translate(217,398)"/>
<path d="M0 0 C0.33 0 0.66 0 1 0 C1.22127098 2.29045368 1.4266504 4.58244764 1.625 6.875 C1.74101563 8.15117187 1.85703125 9.42734375 1.9765625 10.7421875 C1.98429687 11.81726563 1.99203125 12.89234375 2 14 C1.34 14.66 0.68 15.32 0 16 C-1 15 -1 15 -1.125 11.375 C-1.08304465 7.50112278 -0.63639059 3.81834356 0 0 Z " fill="#D3D771" transform="translate(1258,245)"/>
<path d="M0 0 C0 1.98 0 3.96 0 6 C-1.65 6.33 -3.3 6.66 -5 7 C-5 3 -5 3 -3.625 1.25 C-2 0 -2 0 0 0 Z " fill="#4E5E63" transform="translate(681,88)"/>
<path d="M0 0 C1.98 0 3.96 0 6 0 C6 0.33 6 0.66 6 1 C9.96 1.33 13.92 1.66 18 2 C18 2.33 18 2.66 18 3 C12.06 3 6.12 3 0 3 C0 2.01 0 1.02 0 0 Z " fill="#50512B" transform="translate(975,819)"/>
<path d="M0 0 C0 1.98 0 3.96 0 6 C-2.97 5.505 -2.97 5.505 -6 5 C-6 4.01 -6 3.02 -6 2 C-3 0 -3 0 0 0 Z " fill="#626E72" transform="translate(1121,95)"/>
<path d="M0 0 C1.98 0.495 1.98 0.495 4 1 C4 2.65 4 4.3 4 6 C3.01 6.33 2.02 6.66 1 7 C1 6.34 1 5.68 1 5 C0.34 5 -0.32 5 -1 5 C-0.67 3.35 -0.34 1.7 0 0 Z " fill="#324047" transform="translate(1722,403)"/>
<path d="M0 0 C2 2 2 2 2.1953125 3.9453125 C2.13020833 5.96354167 2.06510417 7.98177083 2 10 C1.01 10 0.02 10 -1 10 C-1.125 2.25 -1.125 2.25 0 0 Z " fill="#7DB3B0" transform="translate(1567,492)"/>
<path d="M0 0 C2.31 0 4.62 0 7 0 C7 0.33 7 0.66 7 1 C9.97 1.495 9.97 1.495 13 2 C13 2.33 13 2.66 13 3 C8.38 3 3.76 3 -1 3 C-0.67 2.01 -0.34 1.02 0 0 Z " fill="#38391F" transform="translate(1227,272)"/>
<path d="M0 0 C1.65 0 3.3 0 5 0 C5.33 1.32 5.66 2.64 6 4 C2.25 5.125 2.25 5.125 0 4 C0 2.68 0 1.36 0 0 Z " fill="#948D8F" transform="translate(199,73)"/>
<path d="M0 0 C1.32 0 2.64 0 4 0 C4 1.65 4 3.3 4 5 C3.01 5.33 2.02 5.66 1 6 C1 5.34 1 4.68 1 4 C0.01 4 -0.98 4 -2 4 C-1.34 2.68 -0.68 1.36 0 0 Z " fill="#CBC7A1" transform="translate(1611,1065)"/>
<path d="M0 0 C0 1.32 0 2.64 0 4 C-2.31 4.33 -4.62 4.66 -7 5 C-5.64703851 0.94111554 -4.27479763 0 0 0 Z " fill="#474C51" transform="translate(1429,870)"/>
<path d="M0 0 C1.65 0.33 3.3 0.66 5 1 C5 1.66 5 2.32 5 3 C4.34 3 3.68 3 3 3 C3 3.66 3 4.32 3 5 C1.68 5 0.36 5 -1 5 C-0.67 3.35 -0.34 1.7 0 0 Z " fill="#5F4A3C" transform="translate(723,1010)"/>
<path d="M0 0 C-4.83646298 3.22430866 -7.26939984 3.09242903 -13 3 C-13 2.34 -13 1.68 -13 1 C-8.61414671 0.29826347 -4.44209357 -0.10834375 0 0 Z " fill="#6E9E9C" transform="translate(480,606)"/>
<path d="M0 0 C1.90401138 1.90401138 2.93520439 3.33425686 3.19921875 6.046875 C3.1886578 8.03233273 3.09915043 10.0169914 3 12 C2.01 12.495 2.01 12.495 1 13 C-0.10228696 8.59085217 -0.07654536 4.51617599 0 0 Z " fill="#656737" transform="translate(1599,882)"/>
<path d="M0 0 C1.32 0 2.64 0 4 0 C4 1.32 4 2.64 4 4 C2.35 4.33 0.7 4.66 -1 5 C-1 1 -1 1 0 0 Z " fill="#A5AE9F" transform="translate(322,572)"/>
<path d="M0 0 C1.9375 0.75 1.9375 0.75 4 2 C4.75 4.125 4.75 4.125 5 6 C3.125 5.75 3.125 5.75 1 5 C-0.25 2.9375 -0.25 2.9375 -1 1 C-0.67 0.67 -0.34 0.34 0 0 Z " fill="#353A3C" transform="translate(544,378)"/>
<path d="M0 0 C4.95 0 9.9 0 15 0 C15 0.33 15 0.66 15 1 C11.04 1 7.08 1 3 1 C3 1.66 3 2.32 3 3 C1.68 2.67 0.36 2.34 -1 2 C-0.67 1.34 -0.34 0.68 0 0 Z " fill="#201F12" transform="translate(972,818)"/>
<path d="M0 0 C2.56687367 3.8503105 1.83288724 5.58569763 1 10 C0.34 9.67 -0.32 9.34 -1 9 C-1.125 2.25 -1.125 2.25 0 0 Z " fill="#7BB1AF" transform="translate(1567,547)"/>
<path d="M0 0 C0.66 0 1.32 0 2 0 C2 2.64 2 5.28 2 8 C1.34 8 0.68 8 0 8 C-0.38063221 5.6739143 -0.71269945 3.33944736 -1 1 C-0.67 0.67 -0.34 0.34 0 0 Z " fill="#1F2736" transform="translate(952,358)"/>
<path d="M0 0 C1.32 0 2.64 0 4 0 C4 1.65 4 3.3 4 5 C2.68 4.67 1.36 4.34 0 4 C0 2.68 0 1.36 0 0 Z " fill="#818A90" transform="translate(319,180)"/>
<path d="M0 0 C1.65 0.33 3.3 0.66 5 1 C4.67 1.99 4.34 2.98 4 4 C2.35 3.67 0.7 3.34 -1 3 C-0.67 2.01 -0.34 1.02 0 0 Z " fill="#978B84" transform="translate(735,852)"/>
<path d="M0 0 C0.99 0 1.98 0 3 0 C3 1.65 3 3.3 3 5 C1.35 4.67 -0.3 4.34 -2 4 C-1.34 2.68 -0.68 1.36 0 0 Z " fill="#C4B594" transform="translate(80,754)"/>
<path d="M0 0 C1.98 0 3.96 0 6 0 C6 1.32 6 2.64 6 4 C4.68 4 3.36 4 2 4 C2 3.34 2 2.68 2 2 C1.34 2 0.68 2 0 2 C0 1.34 0 0.68 0 0 Z " fill="#898CB2" transform="translate(42,456)"/>
<path d="M0 0 C1.32 0 2.64 0 4 0 C4 1.65 4 3.3 4 5 C1.525 4.01 1.525 4.01 -1 3 C-0.67 2.01 -0.34 1.02 0 0 Z " fill="#738A93" transform="translate(83,308)"/>
<path d="M0 0 C1.98 0 3.96 0 6 0 C5.67 1.32 5.34 2.64 5 4 C3.0625 3.6875 3.0625 3.6875 1 3 C0.67 2.01 0.34 1.02 0 0 Z " fill="#6B778B" transform="translate(983,186)"/>
<path d="M0 0 C1.65 0 3.3 0 5 0 C5 1.32 5 2.64 5 4 C3.35 4 1.7 4 0 4 C0 2.68 0 1.36 0 0 Z " fill="#959086" transform="translate(637,24)"/>
<path d="M0 0 C1.32 0 2.64 0 4 0 C4 1.32 4 2.64 4 4 C2.35 4 0.7 4 -1 4 C-0.67 2.68 -0.34 1.36 0 0 Z " fill="#DAE8E7" transform="translate(221,1046)"/>
<path d="M0 0 C0.99 0 1.98 0 3 0 C3 1.65 3 3.3 3 5 C1.68 5 0.36 5 -1 5 C-0.67 3.35 -0.34 1.7 0 0 Z " fill="#87798D" transform="translate(1436,977)"/>
<path d="M0 0 C1.32 0 2.64 0 4 0 C4 1.32 4 2.64 4 4 C2.35 4 0.7 4 -1 4 C-0.67 2.68 -0.34 1.36 0 0 Z " fill="#DDD2E4" transform="translate(535,958)"/>
<path d="M0 0 C3 3 3 3 3.07421875 5.26171875 C2.94660156 6.06222656 2.81898438 6.86273437 2.6875 7.6875 C2.50767578 8.89986328 2.50767578 8.89986328 2.32421875 10.13671875 C2.21722656 10.75160156 2.11023438 11.36648438 2 12 C1.67 12 1.34 12 1 12 C0.67 8.04 0.34 4.08 0 0 Z " fill="#CDD06D" transform="translate(213,925)"/>
<path d="M0 0 C1.32 0 2.64 0 4 0 C4 1.32 4 2.64 4 4 C2.35 4 0.7 4 -1 4 C-0.67 2.68 -0.34 1.36 0 0 Z " fill="#B5CFC4" transform="translate(55,911)"/>
<path d="M0 0 C1.32 0 2.64 0 4 0 C3.67 1.32 3.34 2.64 3 4 C1.35 4 -0.3 4 -2 4 C-1.34 2.68 -0.68 1.36 0 0 Z " fill="#C3BBC9" transform="translate(416,870)"/>
<path d="M0 0 C0 0.66 0 1.32 0 2 C-0.99 2.33 -1.98 2.66 -3 3 C-4.37195574 4.29355827 -5.71182656 5.62298702 -7 7 C-7.33 6.01 -7.66 5.02 -8 4 C-3.375 0 -3.375 0 0 0 Z " fill="#232821" transform="translate(1202,606)"/>
<path d="M0 0 C1.65 0 3.3 0 5 0 C5 1.32 5 2.64 5 4 C3.35 3.67 1.7 3.34 0 3 C0 2.01 0 1.02 0 0 Z " fill="#A7C1BF" transform="translate(989,425)"/>
<path d="M0 0 C1.65 0 3.3 0 5 0 C4.67 1.65 4.34 3.3 4 5 C2.68 4.34 1.36 3.68 0 3 C0 2.01 0 1.02 0 0 Z " fill="#6B7082" transform="translate(1508,324)"/>
<path d="M0 0 C1.98 0.495 1.98 0.495 4 1 C3.34 2.32 2.68 3.64 2 5 C1.01 4.67 0.02 4.34 -1 4 C-0.67 2.68 -0.34 1.36 0 0 Z " fill="#72666F" transform="translate(1681,251)"/>
<path d="M0 0 C1.65 0 3.3 0 5 0 C4.67 1.32 4.34 2.64 4 4 C2.68 4 1.36 4 0 4 C0 2.68 0 1.36 0 0 Z " fill="#BFD2E4" transform="translate(679,221)"/>
<path d="M0 0 C0.99 0 1.98 0 3 0 C3 2.64 3 5.28 3 8 C2.01 7.34 1.02 6.68 0 6 C-0.1875 2.875 -0.1875 2.875 0 0 Z " fill="#2B2C19" transform="translate(1707,100)"/>
<path d="M0 0 C-1.8125 2 -1.8125 2 -4 4 C-4.99 4 -5.98 4 -7 4 C-7 3.01 -7 2.02 -7 1 C-3.375 -1.125 -3.375 -1.125 0 0 Z " fill="#D3D7D4" transform="translate(978,924)"/>
<path d="M0 0 C3.3 0.33 6.6 0.66 10 1 C10 1.33 10 1.66 10 2 C6.7 2.33 3.4 2.66 0 3 C0 2.01 0 1.02 0 0 Z " fill="#D4D771" transform="translate(231,908)"/>
<path d="M0 0 C1.32 0 2.64 0 4 0 C3.67 1.32 3.34 2.64 3 4 C1.68 4 0.36 4 -1 4 C-0.67 2.68 -0.34 1.36 0 0 Z " fill="#8BA0B0" transform="translate(1496,870)"/>
<path d="M0 0 C0.66 0 1.32 0 2 0 C2.33 1.65 2.66 3.3 3 5 C1.02 5 -0.96 5 -3 5 C-1.625 2.5 -1.625 2.5 0 0 Z " fill="#3D5650" transform="translate(522,418)"/>
<path d="M0 0 C1.65 0 3.3 0 5 0 C4.67 1.32 4.34 2.64 4 4 C2.68 4 1.36 4 0 4 C0 2.68 0 1.36 0 0 Z " fill="#ACA8A2" transform="translate(1661,117)"/>
<path d="M0 0 C1.32 0 2.64 0 4 0 C4 1.32 4 2.64 4 4 C2.35 3.67 0.7 3.34 -1 3 C-0.67 2.01 -0.34 1.02 0 0 Z " fill="#8EABC4" transform="translate(1508,114)"/>
<path d="M0 0 C0.99 0 1.98 0 3 0 C3 1.65 3 3.3 3 5 C1.68 4.67 0.36 4.34 -1 4 C-0.67 2.68 -0.34 1.36 0 0 Z " fill="#415C60" transform="translate(1124,35)"/>
<path d="M0 0 C1.65 0 3.3 0 5 0 C4.34 1.32 3.68 2.64 3 4 C1.68 3.67 0.36 3.34 -1 3 C-0.67 2.01 -0.34 1.02 0 0 Z " fill="#BDBD8D" transform="translate(1680,839)"/>
<path d="M0 0 C1.32 0 2.64 0 4 0 C3.67 1.65 3.34 3.3 3 5 C2.01 4.67 1.02 4.34 0 4 C0 2.68 0 1.36 0 0 Z " fill="#2E2F24" transform="translate(1596,681)"/>
<path d="M0 0 C1.65 0 3.3 0 5 0 C4.67 1.32 4.34 2.64 4 4 C2.68 3.67 1.36 3.34 0 3 C0 2.01 0 1.02 0 0 Z " fill="#586269" transform="translate(1539,584)"/>
<path d="M0 0 C0.99 0 1.98 0 3 0 C3.1875 2.875 3.1875 2.875 3 6 C2.01 6.66 1.02 7.32 0 8 C0 5.36 0 2.72 0 0 Z " fill="#2B3C3C" transform="translate(502,570)"/>
<path d="M0 0 C1.65 0 3.3 0 5 0 C5 0.99 5 1.98 5 3 C3.68 3.33 2.36 3.66 1 4 C0.67 2.68 0.34 1.36 0 0 Z " fill="#484B49" transform="translate(42,562)"/>
<path d="M0 0 C1.98 0.495 1.98 0.495 4 1 C3.67 1.99 3.34 2.98 3 4 C1.68 4 0.36 4 -1 4 C-0.67 2.68 -0.34 1.36 0 0 Z " fill="#89B0CA" transform="translate(441,553)"/>
<path d="M0 0 C0.66 0 1.32 0 2 0 C2 1.32 2 2.64 2 4 C1.34 4 0.68 4 0 4 C0 6.31 0 8.62 0 11 C-0.33 11 -0.66 11 -1 11 C-1.0270043 9.54176788 -1.04639787 8.08339325 -1.0625 6.625 C-1.07410156 5.81289063 -1.08570313 5.00078125 -1.09765625 4.1640625 C-1 2 -1 2 0 0 Z " fill="#3F3F22" transform="translate(219,329)"/>
<path d="M0 0 C1.32 0 2.64 0 4 0 C4.33 1.32 4.66 2.64 5 4 C3.35 3.67 1.7 3.34 0 3 C0 2.01 0 1.02 0 0 Z " fill="#CACDC9" transform="translate(308,306)"/>
</svg>
